<?xml version="1.0" standalone="no"?>
<svg xmlns="http://www.w3.org/2000/svg" x="0px" y="0px"
width="64" height="64"
viewBox="0 0 172 172"
style=" fill:#000000;"><g fill="none" fill-rule="nonzero" stroke="none" stroke-width="1" stroke-linecap="butt" stroke-linejoin="miter" stroke-miterlimit="10" stroke-dasharray="" stroke-dashoffset="0" font-family="none" font-weight="none" font-size="none" text-anchor="none" style="mix-blend-mode: normal"><path d="M0,172v-172h172v172z" fill="none"></path><g><path d="M65.84375,18.8125h40.3125v81.96875h-40.3125z" fill="#ffffff"></path><path d="M98.09375,104.8125c-2.28437,0 -4.03125,-1.74688 -4.03125,-4.03125v-81.96875c0,-2.28438 1.74688,-4.03125 4.03125,-4.03125c2.28437,0 4.03125,1.74687 4.03125,4.03125v81.96875c0,2.28437 -1.74688,4.03125 -4.03125,4.03125z" fill="#c0e7ff"></path><path d="M100.78125,32.25h5.375v41.65625h-5.375z" fill="#c0e7ff"></path><path d="M106.15625,77.9375h-5.375c-2.28437,0 -4.03125,-1.74688 -4.03125,-4.03125v-41.65625c0,-2.28438 1.74688,-4.03125 4.03125,-4.03125h5.375c2.28437,0 4.03125,1.74687 4.03125,4.03125v41.65625c0,2.28437 -1.74688,4.03125 -4.03125,4.03125z" fill="#c0e7ff"></path><path d="M145.125,153.1875h-111.53125c-3.7625,0 -6.71875,2.95625 -6.71875,6.71875v0c0,3.7625 2.95625,6.71875 6.71875,6.71875h111.53125z" fill="#ffffff"></path><path d="M86,153.1875h59.125v13.4375h-59.125z" fill="#c0e7ff"></path><path d="M92.71875,9.40625h-13.4375c-2.28437,0 -4.03125,-1.74688 -4.03125,-4.03125c0,-2.28438 1.74688,-4.03125 4.03125,-4.03125h13.4375c2.28437,0 4.03125,1.74687 4.03125,4.03125c0,2.28437 -1.74688,4.03125 -4.03125,4.03125zM106.15625,131.6875h-40.3125c-2.28438,0 -4.03125,-1.74687 -4.03125,-4.03125c0,-2.28437 1.74687,-4.03125 4.03125,-4.03125h40.3125c2.28437,0 4.03125,1.74688 4.03125,4.03125c0,2.28438 -1.74688,4.03125 -4.03125,4.03125z" fill="#444b54"></path><path d="M145.125,92.58438c-7.42133,0 -13.4375,6.01617 -13.4375,13.4375c0,7.42133 6.01617,13.4375 13.4375,13.4375c7.42133,0 13.4375,-6.01617 13.4375,-13.4375c0,-7.42133 -6.01617,-13.4375 -13.4375,-13.4375z" fill="#ffffff"></path><g fill="#444b54"><path d="M149.02188,88.95625c-1.47813,-23.65 -17.33437,-43.40312 -38.83437,-50.92812v-19.21563c0,-2.28438 -1.74688,-4.03125 -4.03125,-4.03125h-40.3125c-2.28438,0 -4.03125,1.74687 -4.03125,4.03125v81.96875c0,2.28437 1.74687,4.03125 4.03125,4.03125h40.3125c2.28437,0 4.03125,-1.74688 4.03125,-4.03125v-40.3125c0,-2.28438 -1.74688,-4.03125 -4.03125,-4.03125c-2.28437,0 -4.03125,1.74687 -4.03125,4.03125v36.28125h-32.25v-73.90625h32.25v13.16875c-3.49375,-0.67187 -7.12188,-1.075 -10.75,-1.075h-5.375c-2.28437,0 -4.03125,1.74688 -4.03125,4.03125c0,2.28437 1.74688,4.03125 4.03125,4.03125h5.375c26.20313,0 47.70313,20.29062 49.58437,46.09063c-7.65937,1.88125 -13.30312,8.73438 -13.30312,16.93125c0,8.19687 5.77812,15.18437 13.4375,16.93125v26.20313h-107.5c-5.9125,0 -10.75,4.8375 -10.75,10.75c0,5.9125 4.8375,10.75 10.75,10.75h111.53125c2.28438,0 4.03125,-1.74687 4.03125,-4.03125v-13.4375v-30.23437c7.65938,-1.88125 13.4375,-8.73437 13.4375,-16.93125c0,-8.33125 -5.77812,-15.31875 -13.57188,-17.06563zM141.09375,162.59375h-107.5c-1.47812,0 -2.6875,-1.20937 -2.6875,-2.6875c0,-1.47813 1.20938,-2.6875 2.6875,-2.6875h107.5zM146.2,115.42813c0,0 -0.13437,0 0,0c-0.40312,0 -0.67187,0 -1.075,0c-5.24062,0 -9.40625,-4.16562 -9.40625,-9.40625c0,-0.26875 0,-0.5375 0,-0.94063c0.40312,-4.8375 4.43437,-8.46562 9.40625,-8.46562c4.8375,0 8.86875,3.7625 9.40625,8.46562c0,0.26875 0,0.67188 0,0.94063c0,4.8375 -3.62813,8.86875 -8.33125,9.40625z"></path></g></g></g></svg>
</g>
</svg>
