<svg id="Capa_1" enable-background="new 0 0 512 512" height="512" viewBox="0 0 512 512" width="512" xmlns="http://www.w3.org/2000/svg"><g><g><path d="m143.768 17.697h50.047v85.302h-50.047z" fill="#595959" transform="matrix(.904 -.427 .427 .904 -9.603 77.891)"/></g><g><path d="m173.196 11.095-15.049 7.11 33.082 70.016-30.202 14.27 3.359 7.11 45.25-21.38z" fill="#434343"/></g><g><path d="m283.643 223.066-62.083 29.333c-2.497 1.18-5.477.112-6.657-2.385l-68.8-145.615c-1.18-2.497-.112-5.477 2.385-6.657l62.083-29.333c2.497-1.18 5.477-.112 6.657 2.385l68.8 145.615c1.18 2.497.112 5.478-2.385 6.657z" fill="#dfdfdf"/></g><g><path d="m286.036 216.427-68.816-145.649c-1.175-2.487-4.144-3.551-6.631-2.376l-19.094 9.022 60.332 127.692c1.175 2.487.112 5.456-2.376 6.631l-43.023 20.328 8.485 17.957c1.175 2.487 4.144 3.551 6.631 2.376l62.118-29.349c2.486-1.176 3.55-4.145 2.374-6.632z" fill="#ababab"/></g><g><g><path d="m152.511 443.06-17.738-25.913c-15.678-22.903-26.03-49.533-29.939-77.011s-1.393-55.939 7.277-82.306l33.227-101.057 52.048 17.114-33.226 101.056c-12.258 37.281-6.341 78.871 15.826 111.256l17.738 25.913z" fill="#dfdfdf"/></g></g><g><path d="m179.986 386.199c-22.167-32.385-28.084-73.975-15.826-111.256l33.227-101.057-52.048-17.114-.467 1.422 33.37 12.891-38.332 99.233c-14.141 36.608-10.351 78.446 10.138 111.918l4.43 7.238c6.608 10.795 3.213 24.902-7.581 31.509l-6.692 4.096 12.308 17.981 45.212-30.948z" fill="#ababab"/></g><g><path d="m329.78 289.235-22.947 10.842c-1.498.708-3.286.067-3.994-1.431l-25.789-54.583 28.372-13.405 25.789 54.583c.708 1.498.067 3.286-1.431 3.994z" fill="#dfdfdf"/></g><g><path d="m369.91 251.749-16.645 19.159c-1.087 1.251-2.981 1.384-4.232.297l-45.572-39.593 20.58-23.688 45.572 39.593c1.251 1.086 1.384 2.981.297 4.232z" fill="#dfdfdf"/></g><g><path d="m251.3 307.79 25.37-.693c1.656-.045 2.962-1.424 2.917-3.081l-1.647-60.346-31.368.856 1.647 60.346c.045 1.657 1.425 2.963 3.081 2.918z" fill="#dfdfdf"/></g><g><path d="m331.216 285.251-25.794-54.593-9.487 4.482 21.146 44.756c.705 1.492.067 3.274-1.425 3.979l-16.183 7.646 3.371 7.135c.705 1.492 2.486 2.13 3.979 1.425l22.968-10.852c1.492-.704 2.13-2.486 1.425-3.978z" fill="#ababab"/></g><g><path d="m369.622 247.524-45.58-39.6-6.731 7.748 37.369 32.466c1.246 1.083 1.378 2.97.296 4.216l-11.889 13.684 5.955 5.174c1.246 1.083 3.134.95 4.216-.296l16.66-19.176c1.082-1.246.95-3.133-.296-4.216z" fill="#ababab"/></g><g><path d="m277.94 243.671-10.105.276 1.361 49.864c.045 1.65-1.256 3.024-2.906 3.069l-18.276.499.205 7.506c.045 1.65 1.419 2.951 3.069 2.906l25.393-.693c1.65-.045 2.951-1.419 2.906-3.069z" fill="#ababab"/></g><g><path d="m120.286 43.569c-2.8 0-5.485-1.582-6.76-4.281-1.763-3.731-.167-8.184 3.563-9.947l60.578-28.623c3.733-1.763 8.184-.167 9.947 3.563s.167 8.184-3.563 9.947l-60.578 28.623c-1.031.488-2.118.718-3.187.718z" fill="#434343"/></g><g><path d="m242.909 390.612c-2.8 0-5.485-1.582-6.76-4.281-1.763-3.731-.167-8.184 3.563-9.947l145.069-68.542c3.732-1.763 8.184-.167 9.947 3.564s.167 8.184-3.563 9.947l-145.069 68.542c-1.031.487-2.118.717-3.187.717z" fill="#434343"/></g><g><path d="m252.694 446.206c-2.8 0-5.485-1.582-6.76-4.281-1.763-3.731-.167-8.184 3.563-9.947l48.006-22.682c3.733-1.763 8.184-.167 9.947 3.563 1.763 3.731.167 8.184-3.563 9.947l-48.006 22.682c-1.032.487-2.118.718-3.187.718z" fill="#434343"/></g><g><g><path d="m294.641 429.366-8.512-18.014c-1.175-2.487-.112-5.456 2.376-6.631l76.805-36.289c2.487-1.175 5.456-.112 6.631 2.376l8.512 18.014c1.175 2.487.112 5.456-2.376 6.631l-76.805 36.289c-2.487 1.175-5.456.112-6.631-2.376z" fill="#dfdfdf"/></g></g><g><path d="m380.453 388.822-8.512-18.014c-1.175-2.487-4.144-3.551-6.631-2.376l-7.144 3.375 4.289 9.076c1.175 2.487.112 5.456-2.376 6.631l-69.661 32.914 4.223 8.938c1.175 2.487 4.144 3.551 6.631 2.376l76.805-36.289c2.488-1.175 3.551-4.144 2.376-6.631z" fill="#ababab"/></g><g><circle cx="165.518" cy="178.78" fill="#dfdfdf" r="40.641"/></g><g><path d="m182.727 141.961c2.447 5.227 3.822 11.056 3.822 17.208 0 22.445-18.195 40.641-40.641 40.641-6.153 0-11.982-1.375-17.208-3.822 6.48 13.841 20.526 23.432 36.819 23.432 22.445 0 40.641-18.195 40.641-40.641-.001-16.291-9.593-30.337-23.433-36.818z" fill="#ababab"/></g><g><path d="m165.518 226.892c-26.529 0-48.111-21.583-48.111-48.112s21.582-48.111 48.111-48.111 48.112 21.582 48.112 48.111-21.583 48.112-48.112 48.112zm0-81.281c-18.289 0-33.169 14.879-33.169 33.169s14.879 33.17 33.169 33.17 33.17-14.879 33.17-33.17c0-18.289-14.88-33.169-33.17-33.169z" fill="#434343"/></g><g><path d="m114.906 481.438 97.022-117.117c5.158-5.762 12.526-9.056 20.259-9.056 15.016 0 27.189 12.173 27.189 27.189v39.453c0 6.754 2.683 13.23 7.458 18.006l33.642 41.634z" fill="#595959"/></g><g><path d="m232.275 382.454v39.453c0 6.754 2.683 13.23 7.458 18.006l33.563 41.603 27.181.032-33.642-41.634c-4.775-4.776-7.458-11.252-7.458-18.006v-39.453c0-15.016-12.173-27.189-27.189-27.189-4.807 0-9.471 1.274-13.552 3.621 8.149 4.694 13.639 13.487 13.639 23.567z" fill="#434343"/></g><g><circle cx="228.956" cy="392.96" fill="#cbcbcb" r="9.82"/></g><g><path d="m410.08 512h-308.16c-3.901 0-7.064-3.163-7.064-7.064v-39.4c0-3.901 3.163-7.064 7.064-7.064h308.16c3.901 0 7.064 3.163 7.064 7.064v39.4c0 3.901-3.162 7.064-7.064 7.064z" fill="#dfdfdf"/></g><g><path d="m410.107 458.472h-11.567v27.887c0 3.886-3.151 7.037-7.037 7.037h-296.647v11.567c0 3.886 3.151 7.037 7.037 7.037h308.215c3.886 0 7.037-3.151 7.037-7.037v-39.454c-.001-3.886-3.151-7.037-7.038-7.037z" fill="#ababab"/></g><g><path d="m239.926 273.426-9.133-19.331c-1.18-2.497-.112-5.477 2.385-6.657l100.524-47.495c2.497-1.18 5.477-.112 6.657 2.385l9.133 19.331c1.18 2.497.112 5.477-2.385 6.657l-100.524 47.495c-2.497 1.18-5.478.112-6.657-2.385z" fill="#595959"/></g><g><path d="m349.499 221.676-9.15-19.365c-1.175-2.487-4.144-3.551-6.631-2.376l-7.913 3.739 4.922 10.417c1.175 2.487.112 5.456-2.376 6.631l-92.645 43.773 4.228 8.948c1.175 2.487 4.144 3.551 6.631 2.376l100.558-47.512c2.488-1.175 3.551-4.144 2.376-6.631z" fill="#434343"/></g></g></svg>